<svg width="35" height="35" viewBox="0 0 35 35" fill="none" xmlns="http://www.w3.org/2000/svg">
<path d="M10.0334 27.5625C9.43553 27.5625 8.9397 27.0667 8.9397 26.4688V23.45C8.9397 22.8521 9.43553 22.3563 10.0334 22.3563C10.6314 22.3563 11.1272 22.8521 11.1272 23.45V26.4688C11.1272 27.0813 10.6314 27.5625 10.0334 27.5625Z" fill="#7EC1EB"/>
<path d="M17.5 27.5625C16.9021 27.5625 16.4062 27.0667 16.4062 26.4687V20.4167C16.4062 19.8187 16.9021 19.3229 17.5 19.3229C18.0979 19.3229 18.5938 19.8187 18.5938 20.4167V26.4687C18.5938 27.0812 18.0979 27.5625 17.5 27.5625Z" fill="#7EC1EB"/>
<path d="M24.9666 27.5625C24.3686 27.5625 23.8728 27.0667 23.8728 26.4688V17.3979C23.8728 16.8 24.3686 16.3042 24.9666 16.3042C25.5645 16.3042 26.0603 16.8 26.0603 17.3979V26.4688C26.0603 27.0813 25.5791 27.5625 24.9666 27.5625Z" fill="#7EC1EB"/>
<path d="M10.0334 19.2208C9.53755 19.2208 9.10005 18.8854 8.9688 18.3896C8.82296 17.8062 9.17296 17.2083 9.77088 17.0625C15.1375 15.7208 19.8625 12.7896 23.4646 8.60417L24.1355 7.81667C24.5292 7.36458 25.2146 7.30625 25.6813 7.7C26.1334 8.09375 26.1917 8.77917 25.798 9.24583L25.1271 10.0333C21.2334 14.5833 16.1 17.7479 10.2959 19.1917C10.2084 19.2208 10.1209 19.2208 10.0334 19.2208Z" fill="#7EC1EB"/>
<path d="M24.9668 13.8833C24.3688 13.8833 23.873 13.3875 23.873 12.7896V9.625H20.6938C20.0959 9.625 19.6001 9.12917 19.6001 8.53125C19.6001 7.93333 20.0959 7.4375 20.6938 7.4375H24.9668C25.5647 7.4375 26.0605 7.93333 26.0605 8.53125V12.8042C26.0605 13.4021 25.5793 13.8833 24.9668 13.8833Z" fill="#7EC1EB"/>
<path d="M21.8751 33.1771H13.1251C5.20633 33.1771 1.823 29.7937 1.823 21.875V13.125C1.823 5.20625 5.20633 1.82291 13.1251 1.82291H21.8751C29.7938 1.82291 33.1772 5.20625 33.1772 13.125V21.875C33.1772 29.7937 29.7938 33.1771 21.8751 33.1771ZM13.1251 4.01041C6.40216 4.01041 4.0105 6.40208 4.0105 13.125V21.875C4.0105 28.5979 6.40216 30.9896 13.1251 30.9896H21.8751C28.598 30.9896 30.9897 28.5979 30.9897 21.875V13.125C30.9897 6.40208 28.598 4.01041 21.8751 4.01041H13.1251Z" fill="#7EC1EB"/>
</svg>
