<svg width="34" height="36" viewBox="0 0 34 36" fill="none" xmlns="http://www.w3.org/2000/svg">
<path d="M30.4211 10.1053V18M2 10.1053C2 14.944 2 25.5382 2 26.1494C2 28.3323 5.07207 29.63 11.2162 32.2255C13.6845 33.2682 14.9187 33.7895 16.2105 33.7895L16.2105 16.9813" stroke="#3AC430" stroke-width="3" stroke-linecap="round" stroke-linejoin="round"/>
<path d="M20.9473 29.0526C20.9473 29.0526 22.3288 29.0526 23.7104 32.2105C23.7104 32.2105 28.099 24.3158 31.9999 22.7368" stroke="#3AC430" stroke-width="3" stroke-linecap="round" stroke-linejoin="round"/>
<path d="M10.4093 14.3548L5.79692 12.1229C3.26564 10.8981 2 10.2856 2 9.3158C2 8.34597 3.26564 7.73354 5.79692 6.50868L10.4093 4.27678C13.2561 2.89929 14.6794 2.21054 16.2105 2.21054C17.7416 2.21054 19.165 2.89929 22.0117 4.27678L26.6241 6.50868C29.1554 7.73354 30.4211 8.34597 30.4211 9.3158C30.4211 10.2856 29.1554 10.8981 26.6241 12.1229L22.0117 14.3548C19.165 15.7323 17.7416 16.4211 16.2105 16.4211C14.6794 16.4211 13.2561 15.7323 10.4093 14.3548Z" stroke="#3AC430" stroke-width="3" stroke-linecap="round" stroke-linejoin="round"/>
<path d="M6.73682 18L9.89471 19.579" stroke="#3AC430" stroke-width="3" stroke-linecap="round" stroke-linejoin="round"/>
<path d="M24.1051 5.36844L8.31567 13.2632" stroke="#3AC430" stroke-width="3" stroke-linecap="round" stroke-linejoin="round"/>
</svg>
