<svg width="34" height="34" viewBox="0 0 34 34" fill="none" xmlns="http://www.w3.org/2000/svg">
<path d="M15.5 32C14.2727 32 13.1003 31.5047 10.7554 30.5142C4.91846 28.0485 2 26.8157 2 24.7419C2 24.1613 2 14.0968 2 9.5M15.5 32L15.5 16.0323M15.5 32C16.4251 32 17.18 31.7186 18.5 31.1558M29 9.5V17" stroke="#E75060" stroke-width="3" stroke-linecap="round" stroke-linejoin="round"/>
<path d="M23 21.5L27.5 26M27.5 26L32 30.5M27.5 26L23 30.5M27.5 26L32 21.5" stroke="#E75060" stroke-width="3" stroke-linecap="round"/>
<path d="M9.98888 13.5371L5.60707 11.4168C3.20236 10.2532 2 9.67135 2 8.75C2 7.82865 3.20236 7.24685 5.60707 6.08323L9.98888 3.96293C12.6933 2.65431 14.0454 2 15.5 2C16.9546 2 18.3067 2.65431 21.0111 3.96292L25.3929 6.08323C27.7976 7.24685 29 7.82865 29 8.75C29 9.67135 27.7976 10.2532 25.3929 11.4168L21.0111 13.5371C18.3067 14.8457 16.9546 15.5 15.5 15.5C14.0454 15.5 12.6933 14.8457 9.98888 13.5371Z" stroke="#E75060" stroke-width="3" stroke-linecap="round" stroke-linejoin="round"/>
<path d="M6.5 17L9.5 18.5" stroke="#E75060" stroke-width="3" stroke-linecap="round" stroke-linejoin="round"/>
<path d="M23 5L8 12.5" stroke="#E75060" stroke-width="3" stroke-linecap="round" stroke-linejoin="round"/>
</svg>
