<svg width="50" height="50" viewBox="0 0 50 50" fill="none" xmlns="http://www.w3.org/2000/svg">
<path d="M10.25 42.25L13.9375 45.1042C14.4167 45.5833 15.4792 45.8124 16.2083 45.8124H20.7292C22.1667 45.8124 23.7083 44.75 24.0625 43.3125L26.9167 34.6249C27.5208 32.9583 26.4375 31.5208 24.6458 31.5208H19.875C19.1667 31.5208 18.5625 30.9165 18.6875 30.0832L19.2917 26.2707C19.5208 25.2082 18.8125 23.9999 17.75 23.6457C16.7917 23.2916 15.6042 23.7708 15.125 24.4791L10.25 31.7499" stroke="#7EC1EB" stroke-width="2" stroke-miterlimit="10"/>
<path d="M4.16675 42.25V30.5834C4.16675 28.9167 4.87508 28.3124 6.54175 28.3124H7.72925C9.39591 28.3124 10.1042 28.9167 10.1042 30.5834V42.25C10.1042 43.9167 9.39591 44.5208 7.72925 44.5208H6.54175C4.87508 44.5208 4.16675 43.9375 4.16675 42.25Z" stroke="#7EC1EB" stroke-width="2" stroke-linecap="round" stroke-linejoin="round"/>
<path d="M39.75 7.74992L36.0625 4.89576C35.5834 4.4166 34.5209 4.1875 33.7917 4.1875H29.2709C27.8334 4.1875 26.2917 5.2499 25.9375 6.6874L23.0834 15.375C22.4792 17.0417 23.5625 18.4791 25.3542 18.4791H30.125C30.8334 18.4791 31.4375 19.0834 31.3125 19.9168L30.7084 23.7292C30.4792 24.7917 31.1875 26 32.25 26.3542C33.2084 26.7084 34.3959 26.2291 34.875 25.5208L39.75 18.25" stroke="#7EC1EB" stroke-width="2" stroke-miterlimit="10"/>
<path d="M45.8335 7.74989V19.4165C45.8335 21.0832 45.1252 21.6875 43.4585 21.6875H42.271C40.6043 21.6875 39.896 21.0832 39.896 19.4165V7.74989C39.896 6.08322 40.6043 5.47913 42.271 5.47913H43.4585C45.1252 5.47913 45.8335 6.06239 45.8335 7.74989Z" stroke="#7EC1EB" stroke-width="2" stroke-linecap="round" stroke-linejoin="round"/>
</svg>
