<svg width="32" height="32" viewBox="0 0 32 32" fill="none" xmlns="http://www.w3.org/2000/svg">
<path d="M28.0241 1C26.3539 1 25 5.02944 25 10H28.0241C29.4814 10 30.2101 10 30.6612 9.49682C31.1123 8.99364 31.0338 8.331 30.8767 7.00571C30.4621 3.50715 29.3415 1 28.0241 1Z" stroke="white" stroke-width="2"/>
<path d="M25 10.0814V25.9687C25 28.2362 25 29.37 24.3071 29.8163C23.1747 30.5456 21.4241 29.0161 20.5437 28.4609C19.8162 28.0021 19.4525 27.7728 19.0488 27.7595C18.6126 27.7452 18.2424 27.9652 17.4563 28.4609L14.59 30.2686C13.8168 30.7562 13.4302 31 13 31C12.5698 31 12.1832 30.7562 11.41 30.2686L8.54369 28.4609C7.81622 28.0021 7.45249 27.7728 7.0488 27.7595C6.61258 27.7452 6.24239 27.9652 5.45631 28.4609C4.57592 29.0161 2.82531 30.5456 1.69293 29.8163C1 29.37 1 28.2362 1 25.9687V10.0814C1 5.80038 1 3.65988 2.31802 2.32994C3.63604 1 5.75736 1 10 1H28" stroke="white" stroke-width="2" stroke-linecap="round" stroke-linejoin="round"/>
<path d="M7 7H19" stroke="white" stroke-width="2" stroke-linecap="round" stroke-linejoin="round"/>
<path d="M10 13H7" stroke="white" stroke-width="2" stroke-linecap="round" stroke-linejoin="round"/>
<path d="M16.75 14.3125C15.5074 14.3125 14.5 15.1939 14.5 16.2812C14.5 17.3686 15.5074 18.25 16.75 18.25C17.9926 18.25 19 19.1314 19 20.2188C19 21.3061 17.9926 22.1875 16.75 22.1875M16.75 14.3125C17.7297 14.3125 18.5631 14.8603 18.872 15.625M16.75 14.3125V13M16.75 22.1875C15.7703 22.1875 14.9369 21.6397 14.628 20.875M16.75 22.1875V23.5" stroke="white" stroke-width="2" stroke-linecap="round"/>
</svg>
