<svg width="30" height="30" viewBox="0 0 30 30" fill="none" xmlns="http://www.w3.org/2000/svg">
<path d="M14.9999 2.5C10.8985 2.5 6.79701 6.80642 4.46182 9.76723C3.1097 11.4816 2.60694 13.6771 2.80462 15.8515L3.39881 22.3877C3.59767 24.5751 5.4317 26.25 7.62815 26.25H8.74993C10.4758 26.25 11.8749 24.8509 11.8749 23.125C11.8749 21.3991 13.274 20 14.9999 20C16.7258 20 18.1249 21.3991 18.1249 23.125C18.1249 24.8509 19.524 26.25 21.2499 26.25H22.3717C24.5682 26.25 26.4022 24.5751 26.601 22.3877L27.1952 15.8515C27.3929 13.6771 26.8902 11.4816 25.538 9.76723C23.2029 6.80642 19.1014 2.5 14.9999 2.5Z" stroke="white" stroke-width="2"/>
</svg>
