<svg width="34" height="28" viewBox="0 0 34 28" fill="none" xmlns="http://www.w3.org/2000/svg">
<path d="M28.25 22.25C28.25 24.3211 26.5711 26 24.5 26C22.4289 26 20.75 24.3211 20.75 22.25C20.75 20.1789 22.4289 18.5 24.5 18.5C26.5711 18.5 28.25 20.1789 28.25 22.25Z" stroke="#7EC1EB" stroke-width="3"/>
<path d="M13.25 22.25C13.25 24.3211 11.5711 26 9.5 26C7.42893 26 5.75 24.3211 5.75 22.25C5.75 20.1789 7.42893 18.5 9.5 18.5C11.5711 18.5 13.25 20.1789 13.25 22.25Z" stroke="#7EC1EB" stroke-width="3"/>
<path d="M20.75 22.25H13.25M28.25 22.25H29.3947C29.7247 22.25 29.8897 22.25 30.0283 22.2327C31.0503 22.1053 31.8553 21.3003 31.9827 20.2783C32 20.1397 32 19.9747 32 19.6447V15.5C32 10.1152 27.6348 5.75 22.25 5.75M2 2H17C19.1213 2 20.182 2 20.841 2.65901C21.5 3.31802 21.5 4.37868 21.5 6.5V19.25M2 15.125V18.5C2 19.9019 2 20.6029 2.30144 21.125C2.49892 21.467 2.78296 21.7511 3.125 21.9486C3.64711 22.25 4.34808 22.25 5.75 22.25" stroke="#7EC1EB" stroke-width="3" stroke-linecap="round" stroke-linejoin="round"/>
<path d="M2 6.5H11M2 11H8" stroke="#7EC1EB" stroke-width="3" stroke-linecap="round" stroke-linejoin="round"/>
</svg>
