<svg width="50" height="50" viewBox="0 0 50 50" fill="none" xmlns="http://www.w3.org/2000/svg">
<path d="M25 47.1129C27.5505 47.1129 29.6182 45.0454 29.6182 42.4948C29.6182 39.9444 27.5505 37.8767 25 37.8767C22.4494 37.8767 20.3818 39.9444 20.3818 42.4948C20.3818 45.0454 22.4494 47.1129 25 47.1129Z" stroke="#E75060" stroke-width="1.5" stroke-linecap="round" stroke-linejoin="round"/>
<path d="M35.7961 33.1854C34.7638 32.1531 33.5991 31.284 32.3418 30.5942M14.1914 33.1854C15.2237 32.1531 16.3886 31.284 17.6459 30.5942" stroke="#E75060" stroke-width="1.5" stroke-linecap="round" stroke-linejoin="round"/>
<path d="M42.2843 26.7033C39.8832 24.3023 37.034 22.4525 33.9332 21.235M7.71582 26.7033C10.117 24.3023 12.9662 22.4525 16.0669 21.235" stroke="#E75060" stroke-width="1.5" stroke-linecap="round" stroke-linejoin="round"/>
<path d="M47.9166 19.4026C44.2862 16.0189 39.9862 13.5117 35.3441 12.0101M2.08325 19.4026C5.71363 16.0189 10.0138 13.5117 14.6557 12.0101" stroke="#E75060" stroke-width="1.5" stroke-linecap="round" stroke-linejoin="round"/>
<path d="M20.5704 7.69239L22.3143 29.0769C22.4285 30.4756 23.5968 31.5525 24.9999 31.5525C26.4031 31.5525 27.5714 30.4756 27.6856 29.0769L29.4295 7.69239C29.6406 5.10408 27.5968 2.88696 24.9999 2.88696C22.4031 2.88696 20.3594 5.10408 20.5704 7.69239Z" stroke="#E75060" stroke-width="1.5" stroke-linecap="round" stroke-linejoin="round"/>
</svg>
