<svg width="50" height="50" viewBox="0 0 50 50" fill="none" xmlns="http://www.w3.org/2000/svg">
<path d="M4 45L46 3" stroke="#E75060" stroke-width="3" stroke-linecap="round" stroke-linejoin="round"/>
<path d="M18.75 42.1875C18.75 43.8451 19.4085 45.4348 20.5806 46.6069C21.7527 47.779 23.3424 48.4375 25 48.4375C26.6576 48.4375 28.2473 47.779 29.4194 46.6069C30.5915 45.4348 31.25 43.8451 31.25 42.1875C31.25 40.5299 30.5915 38.9402 29.4194 37.7681C28.2473 36.596 26.6576 35.9375 25 35.9375C23.3424 35.9375 21.7527 36.596 20.5806 37.7681C19.4085 38.9402 18.75 40.5299 18.75 42.1875Z" stroke="#E75060" stroke-width="3" stroke-linecap="round" stroke-linejoin="round"/>
<path d="M36.0416 31.1396C34.6884 29.786 33.0972 28.6935 31.3479 27.9167" stroke="#E75060" stroke-width="3" stroke-linecap="round" stroke-linejoin="round"/>
<path d="M23.4397 17.2354C17.3582 17.6066 11.624 20.195 7.323 24.5104" stroke="#E75060" stroke-width="3" stroke-linecap="round" stroke-linejoin="round"/>
<path d="M42.6771 24.5104C41.1069 22.938 39.3344 21.5816 37.4062 20.4771" stroke="#E75060" stroke-width="3" stroke-linecap="round" stroke-linejoin="round"/>
<path d="M31.15 8.36666C25.8832 7.40668 20.4649 7.69135 15.3277 9.19793C10.1905 10.7045 5.47662 13.3913 1.5625 17.0437" stroke="#E75060" stroke-width="3" stroke-linecap="round" stroke-linejoin="round"/>
<path d="M48.4376 17.0437C46.8706 15.5817 45.1702 14.2697 43.3584 13.125" stroke="#E75060" stroke-width="3" stroke-linecap="round" stroke-linejoin="round"/>
</svg>
