<svg width="35" height="35" viewBox="0 0 35 35" fill="none" xmlns="http://www.w3.org/2000/svg">
<path d="M4.37646 15.297V21.8513C4.37646 25.9709 4.37646 28.0307 5.65928 29.3105C6.9421 30.5903 9.00675 30.5903 13.1361 30.5903H18.9758" stroke="#7EC1EB" stroke-width="2" stroke-linecap="round"/>
<path d="M10.2161 24.7643H16.0558" stroke="#7EC1EB" stroke-width="2" stroke-linecap="round"/>
<path d="M27.0055 19.6661C29.8276 19.6661 32.1153 21.9057 32.1153 24.6682C32.1153 27.7932 29.0265 29.3295 27.553 31.672C27.239 32.1713 26.7947 32.1713 26.4581 31.672C24.9385 29.4185 21.8958 27.7281 21.8958 24.6682C21.8958 21.9057 24.1835 19.6661 27.0055 19.6661Z" stroke="#7EC1EB" stroke-width="2" stroke-linejoin="round"/>
<path d="M27.0056 24.7643H27.0187" stroke="#7EC1EB" stroke-width="2" stroke-linecap="round" stroke-linejoin="round"/>
<path d="M25.9869 2.88346L9.00338 2.92354C6.46854 2.80016 5.81862 4.64667 5.81862 5.54932C5.81862 6.35663 5.70859 7.53355 4.15501 9.74555C2.60143 11.9576 2.71818 12.6147 3.59423 14.146C4.32132 15.417 6.17067 15.9134 7.13494 15.9969C10.1977 16.0628 11.6879 13.5603 11.6879 11.8015C13.2073 16.2208 17.5284 16.2208 19.4537 15.7154C21.3827 15.2092 23.0353 13.397 23.4252 11.8015C23.6526 13.7842 24.3426 14.9412 26.3815 15.7362C28.4935 16.5596 30.3097 15.301 31.221 14.4942C32.1323 13.6874 32.7171 11.8963 31.0926 9.92771C29.9723 8.5701 29.5055 7.29112 29.3521 5.96557C29.2632 5.19749 29.1852 4.37216 28.614 3.84696C27.7793 3.07942 26.5817 2.84653 25.9869 2.88346Z" stroke="#7EC1EB" stroke-width="2" stroke-linecap="round" stroke-linejoin="round"/>
</svg>
