<svg width="30" height="30" viewBox="0 0 30 30" fill="none" xmlns="http://www.w3.org/2000/svg">
<path d="M11.7779 27.8571H3.52267C3.15634 27.8571 2.80502 27.7115 2.54599 27.4523C2.28696 27.1931 2.14144 26.8416 2.14144 26.475V3.525C2.14144 3.15843 2.28696 2.80688 2.54599 2.54768C2.80502 2.28848 3.15634 2.14286 3.52267 2.14286H16.821C17.1873 2.14286 17.5386 2.28848 17.7977 2.54768C18.0567 2.80688 18.2022 3.15843 18.2022 3.525V8.57143C18.2022 8.85559 18.315 9.12811 18.5158 9.32904C18.7166 9.52997 18.989 9.64286 19.2729 9.64286C19.5569 9.64286 19.8293 9.52997 20.0301 9.32904C20.2309 9.12811 20.3437 8.85559 20.3437 8.57143V3.525C20.3408 2.59098 19.9688 1.69602 19.3088 1.03557C18.6488 0.375116 17.7544 0.0028261 16.821 0H3.52267C2.58926 0.0028261 1.6949 0.375116 1.03488 1.03557C0.374868 1.69602 0.00282423 2.59098 0 3.525V26.475C0.00282423 27.409 0.374868 28.304 1.03488 28.9644C1.6949 29.6249 2.58926 29.9972 3.52267 30H11.7779C12.0619 30 12.3342 29.8871 12.535 29.6862C12.7358 29.4853 12.8486 29.2127 12.8486 28.9286C12.8486 28.6444 12.7358 28.3719 12.535 28.171C12.3342 27.97 12.0619 27.8571 11.7779 27.8571Z" fill="white"/>
<path d="M8.91911 3.21429C8.63514 3.21429 8.36279 3.32717 8.162 3.5281C7.9612 3.72903 7.84839 4.00155 7.84839 4.28572C7.84839 4.56988 7.9612 4.8424 8.162 5.04333C8.36279 5.24426 8.63514 5.35714 8.91911 5.35714H11.7779C12.0619 5.35714 12.3342 5.24426 12.535 5.04333C12.7358 4.8424 12.8486 4.56988 12.8486 4.28572C12.8486 4.00155 12.7358 3.72903 12.535 3.5281C12.3342 3.32717 12.0619 3.21429 11.7779 3.21429H8.91911Z" fill="white"/>
<path d="M16.5962 24.6429C16.0668 24.6429 15.5493 24.8 15.1091 25.0943C14.6689 25.3886 14.3258 25.8069 14.1232 26.2964C13.9206 26.7858 13.8676 27.3244 13.9709 27.844C14.0742 28.3636 14.3291 28.8409 14.7035 29.2155C15.0778 29.5901 15.5548 29.8452 16.074 29.9485C16.5933 30.0519 17.1315 29.9988 17.6206 29.7961C18.1097 29.5934 18.5278 29.2501 18.8219 28.8096C19.116 28.3691 19.273 27.8512 19.273 27.3214C19.273 26.611 18.991 25.9297 18.489 25.4274C17.987 24.9251 17.3062 24.6429 16.5962 24.6429ZM16.5962 27.8571C16.4903 27.8571 16.3868 27.8257 16.2988 27.7669C16.2108 27.708 16.1421 27.6243 16.1016 27.5264C16.0611 27.4285 16.0505 27.3208 16.0712 27.2169C16.0918 27.113 16.1428 27.0175 16.2177 26.9426C16.2925 26.8677 16.3879 26.8167 16.4918 26.796C16.5956 26.7753 16.7033 26.7859 16.8011 26.8265C16.8989 26.867 16.9825 26.9357 17.0414 27.0238C17.1002 27.1119 17.1316 27.2155 17.1316 27.3214C17.1316 27.4635 17.0752 27.5998 16.9748 27.7002C16.8744 27.8007 16.7382 27.8571 16.5962 27.8571Z" fill="white"/>
<path d="M25.1619 24.6429C24.6325 24.6429 24.115 24.8 23.6748 25.0943C23.2346 25.3886 22.8915 25.8069 22.6889 26.2964C22.4863 26.7858 22.4333 27.3244 22.5365 27.844C22.6398 28.3636 22.8948 28.8409 23.2691 29.2155C23.6435 29.5901 24.1204 29.8452 24.6397 29.9485C25.1589 30.0519 25.6972 29.9988 26.1863 29.7961C26.6754 29.5934 27.0935 29.2501 27.3876 28.8096C27.6817 28.3691 27.8387 27.8512 27.8387 27.3214C27.8387 26.611 27.5567 25.9297 27.0547 25.4274C26.5527 24.9251 25.8718 24.6429 25.1619 24.6429V24.6429ZM25.1619 27.8571C25.056 27.8571 24.9525 27.8257 24.8645 27.7669C24.7764 27.708 24.7078 27.6243 24.6673 27.5264C24.6268 27.4285 24.6162 27.3208 24.6368 27.2169C24.6575 27.113 24.7085 27.0175 24.7833 26.9426C24.8582 26.8677 24.9536 26.8167 25.0575 26.796C25.1613 26.7753 25.269 26.7859 25.3668 26.8265C25.4646 26.867 25.5482 26.9357 25.607 27.0238C25.6659 27.1119 25.6973 27.2155 25.6973 27.3214C25.6973 27.4635 25.6409 27.5998 25.5405 27.7002C25.4401 27.8007 25.3039 27.8571 25.1619 27.8571Z" fill="white"/>
<path d="M29.7444 11.1214C29.6447 10.9952 29.5179 10.893 29.3733 10.8225C29.2287 10.752 29.0701 10.715 28.9093 10.7143H13.5766L13.416 10.3393C13.1358 9.78067 12.6989 9.31593 12.1588 9.00194C11.6187 8.68795 10.9989 8.53834 10.3751 8.57143H7.37712C7.09314 8.57143 6.8208 8.68431 6.62 8.88524C6.4192 9.08617 6.3064 9.3587 6.3064 9.64286C6.3064 9.92702 6.4192 10.1995 6.62 10.4005C6.8208 10.6014 7.09314 10.7143 7.37712 10.7143H10.3751C10.5799 10.6961 10.786 10.7308 10.9735 10.8153C11.161 10.8997 11.3237 11.031 11.4458 11.1964L11.7992 12.0107L13.7265 20.5821C13.9033 21.4263 14.3646 22.1839 15.0333 22.7282C15.7019 23.2724 16.5372 23.5701 17.399 23.5714H24.3587C25.2191 23.5706 26.0532 23.2744 26.7216 22.7323C27.39 22.1902 27.8523 21.435 28.0313 20.5929C28.0938 20.3087 28.0409 20.0113 27.8842 19.7662C27.7276 19.5211 27.4801 19.3482 27.1961 19.2857C26.9121 19.2232 26.615 19.2761 26.37 19.4329C26.125 19.5896 25.9523 19.8373 25.8898 20.1214C25.8199 20.4804 25.6304 20.8051 25.3523 21.0425C25.0743 21.2799 24.724 21.416 24.3587 21.4286H17.399C17.0263 21.4256 16.6661 21.2939 16.3792 21.0557C16.0924 20.8175 15.8967 20.4875 15.8251 20.1214L14.1869 12.8571H27.5709L26.7678 16.3071C26.7054 16.5913 26.7583 16.8887 26.9149 17.1338C27.0715 17.3789 27.319 17.5518 27.603 17.6143C27.887 17.6768 28.1841 17.6239 28.4291 17.4671C28.6741 17.3104 28.8468 17.0627 28.9093 16.7786L29.98 12.0214C30.0109 11.8633 30.0057 11.7003 29.9649 11.5445C29.9241 11.3887 29.8488 11.2441 29.7444 11.1214V11.1214Z" fill="white"/>
</svg>
