<svg width="30" height="19" viewBox="0 0 30 19" fill="none" xmlns="http://www.w3.org/2000/svg">
<path fill-rule="evenodd" clip-rule="evenodd" d="M15.0001 16.2092C13.4113 17.5803 11.3504 18.408 9.09836 18.408C4.07347 18.408 0 14.2872 0 9.20398C0 4.12076 4.07347 0 9.09836 0C11.3504 0 13.4113 0.827687 15.0001 2.19875C16.5888 0.827687 18.6497 0 20.9017 0C25.9266 0 30.0001 4.12076 30.0001 9.20398C30.0001 14.2872 25.9266 18.408 20.9017 18.408C18.6497 18.408 16.5888 17.5803 15.0001 16.2092Z" fill="#ED0006"/>
<path fill-rule="evenodd" clip-rule="evenodd" d="M15 16.2092C16.9562 14.521 18.1967 12.009 18.1967 9.20398C18.1967 6.39892 16.9562 3.88693 15 2.19875C16.5888 0.827687 18.6497 0 20.9017 0C25.9266 0 30.0001 4.12076 30.0001 9.20398C30.0001 14.2872 25.9266 18.408 20.9017 18.408C18.6497 18.408 16.5888 17.5803 15 16.2092Z" fill="#F9A000"/>
<path fill-rule="evenodd" clip-rule="evenodd" d="M14.9999 16.2092C16.9561 14.521 18.1966 12.009 18.1966 9.20397C18.1966 6.39891 16.9561 3.88693 14.9999 2.19875C13.0437 3.88693 11.8032 6.39891 11.8032 9.20397C11.8032 12.009 13.0437 14.521 14.9999 16.2092Z" fill="#FF5E00"/>
</svg>
