<svg width="35" height="35" viewBox="0 0 35 35" fill="none" xmlns="http://www.w3.org/2000/svg">
<path d="M26.2499 10.4417C26.1624 10.4271 26.0604 10.4271 25.9729 10.4417C23.9604 10.3688 22.3562 8.72083 22.3562 6.67917C22.3562 4.59375 24.0333 2.91666 26.1187 2.91666C28.2041 2.91666 29.8812 4.60833 29.8812 6.67917C29.8666 8.72083 28.2624 10.3688 26.2499 10.4417Z" stroke="#7EC1EB" stroke-width="2" stroke-linecap="round" stroke-linejoin="round"/>
<path d="M24.7479 21.0583C26.7458 21.3938 28.9479 21.0438 30.4937 20.0083C32.5499 18.6375 32.5499 16.3917 30.4937 15.0208C28.9333 13.9854 26.702 13.6354 24.7041 13.9854" stroke="#7EC1EB" stroke-width="2" stroke-linecap="round" stroke-linejoin="round"/>
<path d="M8.70645 10.4417C8.79395 10.4271 8.89603 10.4271 8.98353 10.4417C10.996 10.3688 12.6002 8.72083 12.6002 6.67917C12.6002 4.59375 10.9231 2.91666 8.8377 2.91666C6.75228 2.91666 5.0752 4.60833 5.0752 6.67917C5.08978 8.72083 6.69395 10.3688 8.70645 10.4417Z" stroke="#7EC1EB" stroke-width="2" stroke-linecap="round" stroke-linejoin="round"/>
<path d="M10.2084 21.0583C8.21051 21.3938 6.00843 21.0438 4.4626 20.0083C2.40635 18.6375 2.40635 16.3917 4.4626 15.0208C6.02301 13.9854 8.25426 13.6354 10.2522 13.9854" stroke="#7EC1EB" stroke-width="2" stroke-linecap="round" stroke-linejoin="round"/>
<path d="M17.4999 21.3354C17.4124 21.3208 17.3104 21.3208 17.2229 21.3354C15.2104 21.2625 13.6062 19.6146 13.6062 17.5729C13.6062 15.4875 15.2833 13.8104 17.3687 13.8104C19.4541 13.8104 21.1312 15.5021 21.1312 17.5729C21.1166 19.6146 19.5124 21.2771 17.4999 21.3354Z" stroke="#7EC1EB" stroke-width="2" stroke-linecap="round" stroke-linejoin="round"/>
<path d="M21.7438 25.9292C19.425 24.3833 15.5896 24.3833 13.2563 25.9292C11.2 27.3 11.2 29.5458 13.2563 30.9167C15.5896 32.4771 19.4105 32.4771 21.7438 30.9167" stroke="#7EC1EB" stroke-width="2" stroke-linecap="round" stroke-linejoin="round"/>
</svg>
