<svg width="34" height="30" viewBox="0 0 34 30" fill="none" xmlns="http://www.w3.org/2000/svg">
<path d="M32 10.3183C31.8996 8.00517 31.6184 6.49929 30.8305 5.30806C30.3772 4.62274 29.8141 4.02666 29.1667 3.54679C27.4169 2.24974 24.9484 2.24974 20.0114 2.24974H13.9892C9.05219 2.24974 6.58369 2.24974 4.83387 3.54679C4.18649 4.02666 3.62341 4.62274 3.17011 5.30806C2.38227 6.49916 2.10102 8.00483 2.00062 10.3176C1.98345 10.713 2.32411 11.0155 2.69735 11.0155C4.77607 11.0155 6.4612 12.7994 6.4612 15C6.4612 17.2006 4.77607 18.9845 2.69735 18.9845C2.32411 18.9845 1.98345 19.287 2.00062 19.6825C2.10102 21.9952 2.38227 23.5009 3.17011 24.6919C3.62341 25.3773 4.18649 25.9734 4.83387 26.4532C6.58368 27.7503 9.05219 27.7503 13.9892 27.7503H13.9892H20.0114H20.0114C24.9484 27.7503 27.4169 27.7503 29.1667 26.4532C29.8141 25.9734 30.3772 25.3773 30.8305 24.6919C31.6184 23.5007 31.8996 21.9948 32 19.6817V10.3183Z" stroke="#7EC1EB" stroke-width="3" stroke-linejoin="round"/>
<path d="M18.4998 15L24.4999 15" stroke="#7EC1EB" stroke-width="3" stroke-linecap="round" stroke-linejoin="round"/>
<path d="M12.4995 21.0001L24.4998 21.0001" stroke="#7EC1EB" stroke-width="3" stroke-linecap="round" stroke-linejoin="round"/>
</svg>
