<svg width="57" height="56" viewBox="0 0 57 56" fill="none" xmlns="http://www.w3.org/2000/svg">
<path d="M9.18462 16.4195L12.9333 17.719C13.6199 17.9572 14.2478 17.2544 13.941 16.6005L12.255 13.0122L14.6481 9.84145C15.0851 9.26303 14.6093 8.44447 13.8933 8.53872L9.95916 9.03542L7.68558 5.79C7.27526 5.20002 6.34723 5.39809 6.21352 6.10417L5.46129 9.98701L1.66715 11.1397C0.975076 11.346 0.874886 12.2875 1.50994 12.6371L4.98902 14.5546L4.91491 18.5185C4.90175 19.2407 5.76188 19.6259 6.29136 19.1281L9.18462 16.4195Z" fill="#7EC1EB"/>
<path d="M46.3061 18.0067L48.6913 21.1773C49.128 21.7582 50.0412 21.5255 50.1516 20.8117L50.7556 16.8933L54.511 15.5982C55.1964 15.3622 55.2585 14.4174 54.6118 14.096L51.0703 12.3122L50.9952 8.35037C50.9841 7.63183 50.1035 7.27819 49.5985 7.78942L46.8071 10.5913L43.0155 9.43002C42.3262 9.21488 41.7175 9.94015 42.0493 10.5847L43.8658 14.1176L41.5918 17.3652C41.1778 17.9571 41.6765 18.7568 42.3936 18.6393L46.3061 18.0067Z" fill="#7EC1EB"/>
<path d="M28 11.2052L31.3949 13.2585C32.0166 13.6348 32.7774 13.0785 32.6138 12.375L31.7139 8.51383L34.7162 5.91244C35.2643 5.43797 34.9698 4.53812 34.2499 4.48086L30.2987 4.14546L28.7526 0.496964C28.4745 -0.165655 27.5255 -0.165655 27.2474 0.496964L25.7013 4.13728L21.7501 4.47268C21.0302 4.52994 20.7357 5.42979 21.2838 5.90426L24.2861 8.50565L23.3862 12.3668C23.2226 13.0704 23.9834 13.6266 24.6051 13.2503L28 11.2052Z" fill="#7EC1EB"/>
<path d="M48.1767 43.8269L49.0349 50.6949L45.666 51.1159C41.0341 51.6975 36.3285 51.2224 31.8893 49.7251C27.4502 48.2277 23.3886 45.7456 19.9983 42.4582L13.1933 35.8478C12.6204 35.2892 12.1676 34.6154 11.8638 33.8697C11.56 33.124 11.412 32.3226 11.4291 31.5169C11.4463 30.7111 11.6283 29.9186 11.9634 29.1901C12.2985 28.4615 12.7795 27.8129 13.3756 27.2857L23.1962 18.6516L24.1857 21.2067C24.7649 22.7423 25.8328 24.0377 27.218 24.885C28.6031 25.7323 30.2254 26.0824 31.8244 25.8791L32.901 25.7446L34.7096 28.5029L29.9943 31.6989L31.9509 34.6544L36.6489 31.4606L36.8886 31.8261L32.1732 35.0221L34.1299 37.9776L38.8278 34.7838L39.5905 35.9469L40.5222 36.0642C42.4612 36.3071 44.2678 37.2031 45.6548 38.6097C47.0417 40.0163 47.9294 41.8527 48.1767 43.8269Z" fill="#7EC1EB"/>
</svg>
