<svg width="35" height="35" viewBox="0 0 35 35" fill="none" xmlns="http://www.w3.org/2000/svg">
<path d="M27.8556 26.25H11.6127C7.33396 26.25 5.19604 26.25 3.89084 24.621C1.41605 21.5294 4.23646 13.3044 5.94417 10.2083C6.52313 13.7083 12.4863 13.6106 14.6577 13.125C13.211 10.2098 15.1419 9.23708 16.1073 8.75H16.1102C20.4167 13.8542 29.626 16.6308 31.8821 22.1944C32.8577 24.5977 30.0781 26.25 27.8556 26.25Z" stroke="#7EC1EB" stroke-width="2" stroke-linecap="round" stroke-linejoin="round"/>
<path d="M2.91675 20.4167C8.99071 22.5021 12.7328 23.1058 17.5322 21.5892C18.9861 21.1298 19.7124 20.8994 20.1659 20.93C20.618 20.9621 21.544 21.3923 23.3932 22.2556C25.7017 23.3319 28.8707 23.9517 32.0834 22.3971M19.6876 13.8542L21.8751 11.6667M22.6042 16.0417L24.7917 13.8542" stroke="#7EC1EB" stroke-width="2" stroke-linecap="round" stroke-linejoin="round"/>
</svg>
