<svg width="50" height="50" viewBox="0 0 50 50" fill="none" xmlns="http://www.w3.org/2000/svg">
<path d="M32.0627 10.8541L35.0001 16.7291C35.3959 17.5416 36.4585 18.3124 37.3543 18.4791L42.6668 19.3541C46.0627 19.9166 46.8543 22.3749 44.4168 24.8333L40.2709 28.9791C39.5834 29.6666 39.1877 31.0208 39.4168 31.9999L40.6043 37.125C41.5418 41.1666 39.3751 42.7499 35.8126 40.6249L30.8334 37.6666C29.9376 37.125 28.4376 37.125 27.5418 37.6666L22.5626 40.6249C19.0001 42.7291 16.8335 41.1666 17.771 37.125L18.9585 31.9999C19.1877 31.0416 18.7918 29.6875 18.1043 28.9791L13.9585 24.8333C11.521 22.3958 12.3127 19.9374 15.7085 19.3541L21.021 18.4791C21.9168 18.3333 22.9793 17.5416 23.3751 16.7291L26.3127 10.8541C27.8752 7.66663 30.4585 7.66663 32.0627 10.8541Z" stroke="#7EC1EB" stroke-width="3" stroke-linecap="round" stroke-linejoin="round"/>
<path d="M16.6667 10.4166H4.16675" stroke="#7EC1EB" stroke-width="3" stroke-linecap="round" stroke-linejoin="round"/>
<path d="M10.4167 39.5834H4.16675" stroke="#7EC1EB" stroke-width="3" stroke-linecap="round" stroke-linejoin="round"/>
<path d="M6.25008 25H4.16675" stroke="#7EC1EB" stroke-width="3" stroke-linecap="round" stroke-linejoin="round"/>
</svg>
