<svg width="35" height="35" viewBox="0 0 35 35" fill="none" xmlns="http://www.w3.org/2000/svg">
<path d="M17.7327 16.9458C17.689 16.9458 17.6598 16.9458 17.6161 16.9458C17.5432 16.9313 17.4411 16.9313 17.3536 16.9458C13.1244 16.8146 9.93066 13.4896 9.93066 9.39167C9.93066 5.22084 13.3286 1.82292 17.4994 1.82292C21.6702 1.82292 25.0682 5.22084 25.0682 9.39167C25.0536 13.4896 21.8452 16.8146 17.7765 16.9458C17.7619 16.9458 17.7473 16.9458 17.7327 16.9458Z" fill="white"/>
<path d="M17.7473 33.8854C14.889 33.8854 12.0161 33.1563 9.84318 31.6979C7.8161 30.3563 6.70776 28.5188 6.70776 26.5208C6.70776 24.5229 7.8161 22.6708 9.84318 21.3146C14.2182 18.4125 21.3057 18.4125 25.6515 21.3146C27.664 22.6563 28.7869 24.4938 28.7869 26.4917C28.7869 28.4896 27.6786 30.3417 25.6515 31.6979C23.464 33.1563 20.6057 33.8854 17.7473 33.8854Z" fill="white"/>
</svg>
