<svg width="36" height="36" viewBox="0 0 36 36" fill="none" xmlns="http://www.w3.org/2000/svg">
<path d="M7.17852 13.0518L3.41675 12.829C6.11321 5.90294 13.855 1.9581 21.403 3.91944C29.4423 6.00843 34.2175 14.0064 32.0686 21.7833C30.2913 28.2158 24.3341 32.4823 17.7783 32.5833" stroke="#48AA69" stroke-width="2" stroke-linecap="round" stroke-linejoin="round"/>
<path d="M18.0001 32.5833C9.97925 32.5833 3.41675 25.2917 3.41675 16.5417" stroke="#48AA69" stroke-width="2" stroke-linecap="round" stroke-linejoin="round" stroke-dasharray="1 6"/>
<path d="M20.3386 14.6776C19.826 14.1393 18.5692 12.8745 16.5838 13.7725C14.5985 14.6704 14.2831 17.5596 17.2862 17.8665C18.6435 18.0053 19.5284 17.7056 20.3386 18.5533C21.1488 19.401 21.2993 21.7586 19.2282 22.394C17.157 23.0294 15.815 21.9801 15.454 21.6518M17.8651 12.1952V13.3487M17.8651 22.5896V23.8618" stroke="#48AA69" stroke-width="2" stroke-linecap="round" stroke-linejoin="round"/>
</svg>
